STARTFONT 2.1
FONT -misc-awesome gapless-medium-r-normal--12-110-75-75-c-60-iso10646-1
SIZE 11 75 75
FONTBOUNDINGBOX 4 12 0 -2
STARTPROPERTIES 17
POINT_SIZE 110
PIXEL_SIZE 12
RESOLUTION_X 75
RESOLUTION_Y 75
FONT_ASCENT 10
FONT_DESCENT 2
AVERAGE_WIDTH 60
SPACING "c"
FOUNDRY "misc"
FAMILY_NAME "awesome gapless"
WEIGHT_NAME "medium"
SLANT "r"
SETWIDTH_NAME "normal"
ADD_STYLE_NAME ""
CHARSET_REGISTRY "iso10646"
CHARSET_ENCODING "1"
_GBDFED_INFO "Edited with gbdfed 1.6."
ENDPROPERTIES
CHARS 4
STARTCHAR space
ENCODING 32
SWIDTH 349 0
DWIDTH 4 0
BBX 4 12 0 -2
BITMAP
00
00
00
00
00
00
00
00
00
00
00
00
ENDCHAR
STARTCHAR squares_sel
ENCODING 57344
SWIDTH 349 0
DWIDTH 4 0
BBX 4 12 0 -2
BITMAP
F0
F0
F0
F0
00
00
00
00
00
00
00
00
ENDCHAR
STARTCHAR squares_unsel
ENCODING 57345
SWIDTH 349 0
DWIDTH 4 0
BBX 4 12 0 -2
BITMAP
F0
90
90
F0
00
00
00
00
00
00
00
00
ENDCHAR
STARTCHAR corner
ENCODING 57346
SWIDTH 349 0
DWIDTH 4 0
BBX 4 12 0 -2
BITMAP
F0
80
80
80
00
00
00
00
00
00
00
00
ENDCHAR
ENDFONT
